<svg xmlns="http://www.w3.org/2000/svg" width="37.008" height="25.704" viewBox="0 0 37.008 25.704">
  <path id="_83" data-name="83" d="M1.4-7.128a6.56,6.56,0,0,1,1.458-4.41,5.951,5.951,0,0,1,4.05-2v-.072a5.471,5.471,0,0,1-3.42-1.89A5.543,5.543,0,0,1,2.34-19.044,6.1,6.1,0,0,1,2.988-22,5.3,5.3,0,0,1,4.716-23.9a7.477,7.477,0,0,1,2.448-1.044,12.3,12.3,0,0,1,2.844-.324,12.373,12.373,0,0,1,2.826.324A7.465,7.465,0,0,1,15.3-23.9,5.3,5.3,0,0,1,17.028-22a6.1,6.1,0,0,1,.648,2.952A5.543,5.543,0,0,1,16.524-15.5a5.471,5.471,0,0,1-3.42,1.89v.072a5.951,5.951,0,0,1,4.05,2,6.56,6.56,0,0,1,1.458,4.41,7.693,7.693,0,0,1-.684,3.366A6.768,6.768,0,0,1,16.092-1.4,7.554,7.554,0,0,1,13.356-.018a12.2,12.2,0,0,1-3.348.45,12.139,12.139,0,0,1-3.366-.45A7.568,7.568,0,0,1,3.924-1.4,6.768,6.768,0,0,1,2.088-3.762,7.693,7.693,0,0,1,1.4-7.128Zm8.6-6.984a9.99,9.99,0,0,0,2.322-.27,6.1,6.1,0,0,0,2.016-.864,4.574,4.574,0,0,0,1.422-1.53,4.468,4.468,0,0,0,.54-2.268,4.967,4.967,0,0,0-.522-2.376,4.315,4.315,0,0,0-1.4-1.566,5.837,5.837,0,0,0-2.016-.846,10.84,10.84,0,0,0-2.358-.252,10.84,10.84,0,0,0-2.358.252,5.837,5.837,0,0,0-2.016.846,4.315,4.315,0,0,0-1.4,1.566,4.967,4.967,0,0,0-.522,2.376,4.468,4.468,0,0,0,.54,2.268,4.574,4.574,0,0,0,1.422,1.53,6.1,6.1,0,0,0,2.016.864A9.99,9.99,0,0,0,10.008-14.112ZM2.772-7.128a6.413,6.413,0,0,0,.594,2.862A5.622,5.622,0,0,0,4.95-2.286a6.707,6.707,0,0,0,2.3,1.152,9.913,9.913,0,0,0,2.754.378,9.724,9.724,0,0,0,2.736-.378,6.928,6.928,0,0,0,2.3-1.152,5.537,5.537,0,0,0,1.6-1.98,6.413,6.413,0,0,0,.594-2.862,5.631,5.631,0,0,0-.576-2.646,4.979,4.979,0,0,0-1.584-1.8A6.919,6.919,0,0,0,12.762-12.6a11.465,11.465,0,0,0-2.754-.324,11.4,11.4,0,0,0-2.772.324,6.932,6.932,0,0,0-2.3,1.026,4.979,4.979,0,0,0-1.584,1.8A5.631,5.631,0,0,0,2.772-7.128ZM22.68-8.208a8.309,8.309,0,0,0,.414,3.114,6.229,6.229,0,0,0,1.422,2.34,6.344,6.344,0,0,0,2.3,1.476,8.635,8.635,0,0,0,3.1.522,9.066,9.066,0,0,0,2.664-.4,6.986,6.986,0,0,0,2.286-1.17A5.763,5.763,0,0,0,36.45-4.248a5.652,5.652,0,0,0,.594-2.628,5.509,5.509,0,0,0-.72-2.934,5.043,5.043,0,0,0-1.908-1.818,7.918,7.918,0,0,0-2.682-.864,14.263,14.263,0,0,0-3.042-.108v-1.188a14.166,14.166,0,0,0,2.754-.126,7.554,7.554,0,0,0,2.5-.792,4.973,4.973,0,0,0,1.818-1.638,4.679,4.679,0,0,0,.7-2.664,4.262,4.262,0,0,0-.594-2.268,4.882,4.882,0,0,0-1.548-1.584,7.347,7.347,0,0,0-2.124-.918,9.015,9.015,0,0,0-2.286-.306,6.991,6.991,0,0,0-2.844.54,5.671,5.671,0,0,0-2.034,1.476A6.514,6.514,0,0,0,23.8-19.836a10.508,10.508,0,0,0-.5,2.844H21.924a9.759,9.759,0,0,1,.558-3.366,7.3,7.3,0,0,1,1.6-2.61A7.4,7.4,0,0,1,26.6-24.66a8.573,8.573,0,0,1,3.312-.612,11.908,11.908,0,0,1,2.934.36A7.756,7.756,0,0,1,35.37-23.8a5.9,5.9,0,0,1,1.782,1.944,5.607,5.607,0,0,1,.684,2.844,6.247,6.247,0,0,1-.342,2.088,5.364,5.364,0,0,1-.99,1.728,5.393,5.393,0,0,1-1.548,1.242,5.72,5.72,0,0,1-1.98.63v.072a6.261,6.261,0,0,1,2.268.684,5.682,5.682,0,0,1,1.71,1.386,6.146,6.146,0,0,1,1.08,1.944,7.2,7.2,0,0,1,.378,2.358,7.08,7.08,0,0,1-.684,3.2,6.727,6.727,0,0,1-1.836,2.286,7.75,7.75,0,0,1-2.7,1.368,11.68,11.68,0,0,1-3.276.45,11.077,11.077,0,0,1-3.69-.576,7.5,7.5,0,0,1-2.772-1.674,6.81,6.81,0,0,1-1.692-2.7,9.66,9.66,0,0,1-.45-3.69Z" transform="translate(-1.404 25.272)" fill="#fff"/>
</svg>
